<svg xmlns="http://www.w3.org/2000/svg" width="122.999" height="122.999" viewBox="0 0 122.999 122.999" xml:space="preserve"><path d="M57.022 61.445c0-3.275-1.57-6.089-4.411-6.089-2.788 0-4.413 2.652-4.413 6.198 0 3.572 1.678 6.088 4.439 6.088 2.789.001 4.385-2.651 4.385-6.197"/><path d="m113.107 61.499 9.891-9.741-12.417-6.207 6.396-12.32-13.727-2.066 2.275-13.694-13.692 2.277L89.768 6.02l-12.32 6.396L71.239 0l-9.74 9.891L51.759 0l-6.208 12.417-12.32-6.396-2.067 13.727-13.693-2.277 2.276 13.694L6.02 33.231l6.396 12.32L0 51.758l9.891 9.741L0 71.24l12.417 6.207L6.02 89.768l13.727 2.065-2.276 13.694 13.693-2.276 2.067 13.728 12.32-6.396 6.208 12.416 9.74-9.892 9.74 9.892 6.208-12.416 12.32 6.396 2.066-13.728 13.693 2.276-2.276-13.694 13.728-2.065-6.396-12.319 12.417-6.207zm-51.608 44.086c-20.11 0-37.062-13.47-42.359-31.875h12.869v14.524a40 40 0 0 0 7.891 6.692V73.71h9.25v25.632a39.5 39.5 0 0 0 7.346 1.639V73.71h9.25v27.367a39.7 39.7 0 0 0 7.619-1.571V73.71h9.25v21.526a40 40 0 0 0 8.374-7.002V73.71h12.87c-5.298 18.405-22.25 31.875-42.36 31.875M26.143 52.379h4.52l2.219 7.713c.623 2.166 1.191 4.249 1.625 6.522h.082a80 80 0 0 1 1.65-6.441l2.328-7.794h4.384L36.808 70.62h-4.819zm17.699 9.255c0-5.466 3.492-9.553 8.877-9.553 5.603 0 8.66 4.195 8.66 9.229 0 5.981-3.627 9.607-8.958 9.607-5.412 0-8.579-4.086-8.579-9.283m18.103-5.791v-3.464h14.019v3.464h-4.979V70.62h-4.142V55.843zm27.063 3.708v3.355h-6.711v4.33h7.497v3.384h-11.64V52.379h11.26v3.383h-7.118v3.789zm5.437 6.44c1.436 0 2.383 1.028 2.41 2.464 0 1.406-.947 2.462-2.41 2.462-1.461 0-2.436-1.056-2.436-2.462.001-1.435 1.003-2.464 2.436-2.464m-2.164-13.612h4.303l-.596 12.26h-3.084zm-1.293-3.091V34.763a40 40 0 0 0-8.374-7.003v21.528h-9.25V23.492a39.6 39.6 0 0 0-7.619-1.571v27.367h-9.25v-27.27c-2.53.317-4.986.869-7.346 1.639v25.632h-9.25V28.07a40 40 0 0 0-7.891 6.693v14.524H19.14c5.297-18.404 22.249-31.874 42.359-31.874s37.063 13.47 42.358 31.875z"/></svg>